# AST/ASF file generated using VICON BodyLanguage
# -----------------------------------------------
:version 1.10
:name VICON
:units
  mass 1.0
  length 0.45
  angle deg
:documentation
   .ast/.asf automatically generated from VICON data using
   VICON BodyBuilder and BodyLanguage model FoxedUp or BRILLIANT.MOD
:root
   order TX TY TZ RX RY RZ
   axis XYZ
   position 0 0 0  
   orientation 0 0 0 
:bonedata
  begin
     id 1 
     name lhipjoint
     direction 0.541323 -0.757556 0.364798 
     length 2.47576 
     axis 0 0 0  XYZ
  end
  begin
     id 2 
     name lfemur
     direction 0.34202 -0.939693 0  
     length 7.46493  
     axis 0 0 20  XYZ
    dof rx ry rz
    limits (-160.0 20.0)
           (-70.0 70.0)
           (-60.0 70.0)
  end
  begin
     id 3 
     name ltibia
     direction 0.34202 -0.939693 0   
     length 7.73805   
     axis 0 0 20   XYZ
    dof rx
    limits (-10.0 170.0)
  end
  begin
     id 4 
     name lfoot
     direction 0.107174 -0.294458 0.949636   
     length 2.25864   
     axis -90 7.62852e-016 20   XYZ
    dof rx rz
    limits (-45.0 90.0)
           (-70.0 20.0)
  end
  begin
     id 5 
     name ltoes
     direction 1.53606e-011 -4.21934e-011 1   
     length 1.12451   
     axis -90 7.62852e-016 20   XYZ
    dof rx
    limits (-90.0 20.0)
  end
  begin
     id 6 
     name rhipjoint
     direction -0.524745 -0.766967 0.36933   
     length 2.44538  
     axis 0 0 0  XYZ 
  end
  begin
     id 7 
     name rfemur
     direction -0.34202 -0.939693 0   
     length 7.61604   
     axis 0 0 -20   XYZ
    dof rx ry rz
    limits (-160.0 20.0)
           (-70.0 70.0)
           (-70.0 60.0)
  end
  begin
     id 8 
     name rtibia
     direction -0.34202 -0.939693 0   
     length 7.61056   
     axis 0 0 -20   XYZ
    dof rx
    limits (-10.0 170.0)
 end
 begin
     id 9 
     name rfoot
     direction -0.12616 -0.346623 0.929482   
     length 2.46372  
     axis -90 -7.62852e-016 -20   XYZ
    dof rx rz
    limits (-45.0 90.0)
           (-20.0 70.0)
  end
  begin
     id 10 
     name rtoes
     direction -1.53531e-011 -4.22004e-011 1   
     length 1.21611   
     axis -90 -7.62852e-016 -20   XYZ
    dof rx
    limits (-90.0 20.0)
  end
  begin
     id 11 
     name lowerback
     direction -0.000778023 0.997293 -0.0735223   
     length 2.06139   
     axis 0 0 0   XYZ
    dof rx ry rz
    limits (-20.0 45.0)
           (-30.0 30.0)
           (-30.0 30.0)
  end
  begin
     id 12 
     name upperback
     direction 0.0222598 0.999722 -0.0078355   
     length 2.06383   
     axis 0 0 0   XYZ
    dof rx ry rz
    limits (-20.0 45.0)
           (-30.0 30.0)
           (-30.0 30.0)
  end
  begin
     id 13 
     name thorax
     direction 0.0219654 0.999405 0.0265994   
     length 2.07163   
     axis 0 0 0   XYZ
    dof rx ry rz
    limits (-20.0 45.0)
           (-30.0 30.0)
           (-30.0 30.0)
  end
  begin
     id 14 
     name lowerneck
     direction 0.0213282 0.988147 0.15202   
     length 1.75969   
     axis 0 0 0   XYZ
    dof rx ry rz
    limits (-20.0 45.0)
           (-30.0 30.0)
           (-30.0 30.0)
  end
  begin
     id 15 
     name upperneck
     direction -0.0546456 0.982624 -0.177379   
     length 1.79244   
     axis 0 0 0   XYZ
    dof rx ry rz
    limits (-20.0 45.0)
           (-30.0 30.0)
           (-30.0 30.0)
  end
  begin
     id 16
     name head
     direction -0.0199987 0.996855 -0.076686  
     length 1.80555  
     axis 0 0 0   XYZ
    dof rx ry rz
    limits (-20.0 45.0)
           (-30.0 30.0)
           (-30.0 30.0)
  end
  begin
     id 17 
     name lclavicle
     direction 0.929565 0.363219 -0.063096  
     length 3.55722  
     axis 0 0 0   XYZ
    dof ry rz
    limits (-20.0 10.0)
           (0.0 20.0)
  end
  begin
     id 18 
     name lhumerus
     direction 1 -4.48993e-011 -2.36203e-027   
     length 4.92785   
     axis 180 -30 -90   XYZ
    dof rx ry rz
    limits (-60.0 90.0)
           (-90.0 90.0)
           (-90.0 90.0)
  end
  begin
     id 19
     name lradius
     direction 1 -4.48947e-011 2.02997e-027   
     length 3.44052   
     axis 180 -30 -90   XYZ
    dof rx
    limits (-10.0 170.0)
  end
  begin
     id 20
     name lwrist
     direction 1 -4.48962e-011 1.45991e-027   
     length 1.72026   
     axis 1.49639e-024 90 90   XYZ
    dof ry
    limits (-180.0 0.0)
 end
  begin
     id 21 
     name lhand
     direction 1 -4.48984e-011 2.91906e-027   
     length 0.654326   
     axis -1.863e-015 90 90   XYZ
    dof rx rz
    limits (-90.0 90.0)
           (-45.0 45.0)
  end
  begin
     id 22 
     name lfingers
     direction 1 -4.48961e-011 5.83968e-027   
     length 0.527534   
     axis -3.72598e-015 90 90   XYZ
    dof rx
    limits (0.0 90.0)
  end
  begin
     id 23
     name lthumb
     direction 0.707107 -6.34963e-011 0.707107   
     length 0.757437   
     axis -90 45 -6.68868e-015   XYZ
    dof rx rz
    limits (-45.0 45.0)
           (-45.0 45.0)
  end
  begin
     id 24 
     name rclavicle
     direction -0.902944 0.422599 -0.0781198   
     length 3.54432  
     axis 0 0 0   XYZ 
    dof ry rz
    limits (-10.0 20.0)
           (-20.0 0.0)
  end
  begin
     id 25 
     name rhumerus
     direction -1 -4.48953e-011 -4.75835e-028  
     length 5.09181   
     axis 180 30 90   XYZ
    dof rx ry rz
    limits (-90.0 60.0)
           (-90.0 90.0)
           (-90.0 90.0)
  end
  begin
     id 26 
     name rradius
     direction -1 -4.48986e-011 -3.25889e-027   
     length 3.49865   
     axis 180 30 90   XYZ
    dof rx
    limits (-10.0 170.0)
  end
  begin
     id 27 
     name rwrist
     direction -1 -4.48963e-011 1.45989e-027   
     length 1.74933   
     axis 1.49639e-024 -90 -90   XYZ
    dof ry
    limits (-180.0 0.0)
  end
  begin
     id 28
     name rhand
     direction -1 -4.49003e-011 2.91844e-027   
     length 0.66641   
     axis -1.863e-015 -90 -90   XYZ
    dof rx rz
    limits (-90.0 90.0)
           (-45.0 45.0)
  end
  begin
     id 29
     name rfingers
     direction -1 -4.48973e-011 5.83886e-027   
     length 0.537277   
     axis -3.72598e-015 -90 -90   XYZ
    dof rx
    limits (0.0 90.0)
  end
  begin
     id 30
     name rthumb
     direction -0.707107 -6.34976e-011 0.707107   
     length 0.771425   
     axis -90 -45 6.68868e-015   XYZ
    dof rx rz
    limits (-45.0 45.0)
           (-45.0 45.0)
  end
:hierarchy
  begin
    root lhipjoint rhipjoint lowerback
    lhipjoint lfemur
    lfemur ltibia
    ltibia lfoot
    lfoot ltoes
    rhipjoint rfemur
    rfemur rtibia
    rtibia rfoot
    rfoot rtoes
    lowerback upperback
    upperback thorax
    thorax lowerneck lclavicle rclavicle
    lowerneck upperneck
    upperneck head
    lclavicle lhumerus
    lhumerus lradius
    lradius lwrist
    lwrist lhand lthumb
    lhand lfingers
    rclavicle rhumerus
    rhumerus rradius
    rradius rwrist
    rwrist rhand rthumb
    rhand rfingers
  end

#!OML:ASF H:\LiuWeirdWalks\Patient Classification 1\Patient 1\Session 1\male.ASF
:FULLY-SPECIFIED
:DEGREES
192
root 2.01402 17.8486 -30.0591 -0.022727 3.76754 -0.354054
lowerback 5.40001 1.51359 -2.54367
upperback 0.929704 1.88761 0.758223
thorax -2.17685 0.96203 2.07027
lowerneck -24.4555 -1.63806 2.80271
upperneck 25.7458 -2.96578 -1.53321
head 12.5488 -1.23815 -1.57868
rclavicle 4.07757e-014 -1.2275e-014
rhumerus -34.6369 -21.142 -73.6756
rradius 25.5519
rwrist -3.15827
rhand -17.4483 -4.03095
rfingers 7.12502
rthumb 8.80279 -33.8274
lclavicle 4.07757e-014 -1.2275e-014
lhumerus -34.3998 -2.58649 83.5995
lradius 28.4081
lwrist 10.1378
lhand -12.5099 1.08594
lfingers 7.12502
lthumb 13.5656 30.624
rfemur -20.9616 -4.65299 12.034
rtibia 56.2184
rfoot -14.1381 -17.1068
rtoes -9.48292
lfemur -3.65294 0.170942 -24.8552
ltibia 24.1863
lfoot -13.0085 10.7434
ltoes -23.2155
193
root 2.0206 17.8507 -30.0554 -0.0947588 3.98807 -0.368272
lowerback 5.51971 1.66161 -2.42671
upperback 0.918435 2.08228 0.507574
thorax -2.25267 1.05829 1.72827
lowerneck -24.2718 -2.01636 2.82101
upperneck 25.7507 -3.63223 -1.12717
head 12.5063 -1.47355 -1.53891
rclavicle 3.61229e-014 -3.77691e-015
rhumerus -35.0761 -21.9569 -73.6486
rradius 25.7159
rwrist -3.16996
rhand -17.4325 -4.03203
rfingers 7.12502
rthumb 8.81799 -33.8278
lclavicle 3.61229e-014 -3.77691e-015
lhumerus -34.3187 -3.53526 83.494
lradius 28.3983
lwrist 10.295
lhand -12.4801 1.17756
lfingers 7.12502
lthumb 13.5943 30.7137
rfemur -21.3854 -4.85417 12.0094
rtibia 56.866
rfoot -14.2092 -17.2117
rtoes -9.42723
lfemur -3.52389 0.0250496 -24.8692
ltibia 24.0928
lfoot -12.9409 10.6884
ltoes -23.3323
194
root 2.02646 17.8528 -30.052 -0.162676 4.21732 -0.383164
lowerback 5.5539 1.45576 -2.63682
upperback 0.94034 1.80123 0.756513
thorax -2.24988 0.920456 2.12378
lowerneck -24.3555 -1.72321 2.73252
upperneck 25.8448 -3.09306 -1.41794
head 12.569 -1.28348 -1.54528
rclavicle 6.66084e-015 1.06847e-015
rhumerus -34.9559 -21.2058 -73.5831
rradius 25.7625
rwrist -3.36293
rhand -17.4238 -4.07772
rfingers 7.12502
rthumb 8.82639 -33.8731
lclavicle 6.66084e-015 1.06847e-015
lhumerus -34.4662 -2.75253 83.5902
lradius 28.3986
lwrist 10.1552
lhand -12.4567 1.18843
lfingers 7.12502
lthumb 13.6169 30.7231
rfemur -21.8185 -5.05961 11.9903
rtibia 57.4948
rfoot -14.2908 -17.2752
rtoes -9.39902
lfemur -3.41167 -0.100073 -24.8758
ltibia 24.0174
lfoot -12.8863 10.6063
ltoes -23.8411
195
root 2.03178 17.8547 -30.049 -0.218848 4.44151 -0.392729
lowerback 5.58841 1.30685 -2.80789
upperback 0.964301 1.59638 0.930803
thorax -2.24234 0.819879 2.41516
lowerneck -24.4537 -1.52853 2.65805
upperneck 25.9664 -2.73247 -1.6024
head 12.6442 -1.1558 -1.54472
rclavicle -7.47306e-015 6.90777e-015
rhumerus -34.9003 -20.6795 -73.5289
rradius 25.8228
rwrist -3.51699
rhand -17.3977 -4.08553
rfingers 7.12502
rthumb 8.85156 -33.8799
lclavicle -7.47306e-015 6.90777e-015
lhumerus -34.5512 -2.22697 83.6597
lradius 28.4125
lwrist 10.0768
lhand -12.4389 1.25714
lfingers 7.12502
lthumb 13.634 30.7906
rfemur -22.276 -5.26489 11.9701
rtibia 58.1085
rfoot -14.3774 -17.2969
rtoes -9.38733
lfemur -3.32053 -0.206128 -24.8846
ltibia 23.9549
lfoot -12.8416 10.5098
ltoes -23.2308
196
root 2.03721 17.8558 -30.0462 -0.276233 4.63205 -0.398143
lowerback 5.64203 1.20006 -2.95137
upperback 0.953234 1.44728 1.0612
thorax -2.28114 0.747847 2.64105
lowerneck -24.4343 -1.39674 2.58387
upperneck 26.0516 -2.47439 -1.73086
head 12.6805 -1.0666 -1.53792
rclavicle 5.08765e-015 7.25564e-015
rhumerus -34.9564 -20.2621 -73.4546
rradius 25.888
rwrist -3.64572
rhand -17.3695 -4.09509
rfingers 7.12502
rthumb 8.87878 -33.8883
lclavicle 5.08765e-015 7.25564e-015
lhumerus -34.6816 -1.8431 83.7125
lradius 28.4408
lwrist 10.0393
lhand -12.4238 1.31907
lfingers 7.12502
lthumb 13.6486 30.8516
rfemur -22.7508 -5.45082 11.9473
rtibia 58.7118
rfoot -14.46 -17.2681
rtoes -9.37259
lfemur -3.23344 -0.288989 -24.8996
ltibia 23.9037
lfoot -12.8019 10.4295
ltoes -22.659
197
root 2.04278 17.8565 -30.0428 -0.339942 4.78429 -0.399978
lowerback 5.70431 1.16846 -3.04134
upperback 0.952749 1.39914 1.10713
thorax -2.31644 0.725297 2.74189
lowerneck -24.3747 -1.37871 2.52458
upperneck 26.0768 -2.41846 -1.74621
head 12.6809 -1.04987 -1.52372
rclavicle 2.21024e-014 -3.08116e-015
rhumerus -35.0733 -20.1471 -73.3755
rradius 25.9341
rwrist -3.69445
rhand -17.3399 -4.06124
rfingers 7.12502
rthumb 8.9074 -33.8532
lclavicle 2.21024e-014 -3.08116e-015
lhumerus -34.7514 -1.73778 83.7315
lradius 28.4708
lwrist 10.0472
lhand -12.4224 1.30705
lfingers 7.12502
lthumb 13.65 30.8395
rfemur -23.2352 -5.61325 11.9225
rtibia 59.3061
rfoot -14.5279 -17.2016
rtoes -9.40062
lfemur -3.13816 -0.349796 -24.92
ltibia 23.859
lfoot -12.7719 10.3693
ltoes -21.8602
198
root 2.04831 17.8567 -30.04 -0.397317 4.90468 -0.397633
lowerback 5.79516 1.23098 -3.0599
upperback 0.938969 1.47671 1.0389
thorax -2.3856 0.765144 2.6738
lowerneck -24.2192 -1.51736 2.48293
upperneck 26.0162 -2.63796 -1.60882
head 12.6229 -1.13245 -1.49882
rclavicle -2.42642e-014 -9.44227e-015
rhumerus -35.3114 -20.4207 -73.288
rradius 25.972
rwrist -3.64998
rhand -17.3194 -4.00654
rfingers 7.12502
rthumb 8.92718 -33.7977
lclavicle -2.42642e-014 -9.44227e-015
lhumerus -34.7739 -2.0156 83.7058
lradius 28.5051
lwrist 10.1113
lhand -12.434 1.25903
lfingers 7.12502
lthumb 13.6388 30.7922
rfemur -23.7488 -5.7594 11.8973
rtibia 59.8964
rfoot -14.5764 -17.1079
rtoes -9.44723
lfemur -3.05188 -0.400434 -24.9471
ltibia 23.8179
lfoot -12.7416 10.3294
ltoes -21.1998
199
root 2.05326 17.8566 -30.0379 -0.449219 5.02562 -0.387288
lowerback 5.92078 1.34196 -3.03871
upperback 0.919909 1.61811 0.897693
thorax -2.48067 0.836568 2.5016
lowerneck -24.0305 -1.74887 2.45296
upperneck 25.8995 -3.02261 -1.37539
head 12.5341 -1.27448 -1.46597
rclavicle -3.23336e-015 -7.20594e-016
rhumerus -35.6087 -20.9213 -73.2081
rradius 26.0034
rwrist -3.55414
rhand -17.3074 -3.95628
rfingers 7.12502
rthumb 8.9387 -33.7469
lclavicle -3.23336e-015 -7.20594e-016
lhumerus -34.7575 -2.51489 83.6432
lradius 28.5546
lwrist 10.2123
lhand -12.4508 1.21181
lfingers 7.12502
lthumb 13.6226 30.7461
rfemur -24.2795 -5.92019 11.8698
rtibia 60.4826
rfoot -14.6194 -17.003
rtoes -9.51031
lfemur -2.97063 -0.449811 -24.9797
ltibia 23.7712
lfoot -12.7101 10.2863
ltoes -20.8846
200
root 2.05752 17.8563 -30.0363 -0.490994 5.15781 -0.361878
lowerback 6.03495 1.44862 -3.03944
upperback 0.922618 1.75276 0.758895
thorax -2.54633 0.903984 2.34479
lowerneck -23.8901 -1.97399 2.42868
upperneck 25.76 -3.39509 -1.15879
head 12.4472 -1.41388 -1.43846
rclavicle -4.03781e-016 3.721e-015
rhumerus -35.8399 -21.4547 -73.1249
rradius 25.9965
rwrist -3.41344
rhand -17.3 -3.91778
rfingers 7.12502
rthumb 8.94584 -33.7081
lclavicle -4.03781e-016 3.721e-015
lhumerus -34.6902 -2.97521 83.5782
lradius 28.6031
lwrist 10.288
lhand -12.4862 1.18826
lfingers 7.12502
lthumb 13.5884 30.7248
rfemur -24.8261 -6.10832 11.8325
rtibia 61.0644
rfoot -14.6684 -16.8853
rtoes -9.58794
lfemur -2.89556 -0.496274 -25.0238
ltibia 23.7143
lfoot -12.678 10.2276
ltoes -21.3228
201
root 2.06115 17.856 -30.0346 -0.52802 5.29521 -0.316781
lowerback 6.14387 1.57478 -3.03736
upperback 0.944208 1.91267 0.581825
thorax -2.58901 0.98314 2.14468
lowerneck -23.8105 -2.2401 2.40606
upperneck 25.6576 -3.8438 -0.891029
head 12.3882 -1.57927 -1.40637
rclavicle 9.02607e-015 2.88238e-015
rhumerus -36.0617 -22.0846 -73.0653
rradius 25.9868
rwrist -3.25015
rhand -17.294 -3.89504
rfingers 7.12502
rthumb 8.95167 -33.6851
lclavicle 9.02607e-015 2.88238e-015
lhumerus -34.5671 -3.51974 83.4882
lradius 28.6569
lwrist 10.3985
lhand -12.5105 1.16818
lfingers 7.12502
lthumb 13.565 30.7063
rfemur -25.3833 -6.32386 11.7815
rtibia 61.6382
rfoot -14.7054 -16.7737
rtoes -9.66108
lfemur -2.81392 -0.537501 -25.0854
ltibia 23.6369
lfoot -12.6428 10.1573
ltoes -21.7093
202
root 2.06476 17.856 -30.0317 -0.575887 5.41908 -0.260421
lowerback 6.20189 1.54565 -3.18789
upperback 1.0335 1.86418 0.619985
thorax -2.53232 0.958522 2.27272
lowerneck -24.0254 -2.2224 2.3043
upperneck 25.6926 -3.78286 -0.901343
head 12.4476 -1.56208 -1.38754
rclavicle 3.0793e-014 6.36111e-015
rhumerus -35.9165 -22.0317 -73.0464
rradius 25.9122
rwrist -3.16768
rhand -17.2856 -3.90139
rfingers 7.12502
rthumb 8.95974 -33.6911
lclavicle 3.0793e-014 6.36111e-015
lhumerus -34.4478 -3.26777 83.4713
lradius 28.7001
lwrist 10.3899
lhand -12.5353 1.12729
lfingers 7.12502
lthumb 13.5411 30.667
rfemur -25.9273 -6.54484 11.7233
rtibia 62.1973
rfoot -14.7331 -16.6665
rtoes -9.73923
lfemur -2.70017 -0.573801 -25.1602
ltibia 23.5331
lfoot -12.6018 10.0982
ltoes -22.6657
203
root 2.06858 17.8562 -30.0273 -0.636 5.5263 -0.187509
lowerback 6.22897 1.5227 -3.35339
upperback 1.13928 1.82411 0.65612
thorax -2.44191 0.937242 2.40738
lowerneck -24.267 -2.19168 2.20763
upperneck 25.7808 -3.70524 -0.915405
head 12.5336 -1.53647 -1.36944
rclavicle 3.30169e-015 8.94531e-016
rhumerus -35.7641 -21.961 -73.03
rradius 25.8328
rwrist -3.08007
rhand -17.2517 -3.85295
rfingers 7.12502
rthumb 8.99244 -33.6413
lclavicle 3.30169e-015 8.94531e-016
lhumerus -34.326 -2.99445 83.4564
lradius 28.7456
lwrist 10.3746
lhand -12.552 1.07151
lfingers 7.12502
lthumb 13.525 30.6123
rfemur -26.4579 -6.77084 11.6513
rtibia 62.7375
rfoot -14.757 -16.5699
rtoes -9.77998
lfemur -2.55002 -0.611981 -25.257
ltibia 23.4018
lfoot -12.5559 10.058
ltoes -22.64
